<svg xmlns="http://www.w3.org/2000/svg" width="28" height="28" viewBox="0 0 28 28" fill="none">
  <g opacity="0.3">
    <path d="M22.0004 5.40668H6.06708C5.28994 5.40792 4.52174 5.57246 3.81226 5.88963C3.10279 6.20679 2.46788 6.6695 1.9487 7.24777C1.42952 7.82604 1.03764 8.50696 0.798483 9.24638C0.559323 9.9858 0.478213 10.7672 0.560411 11.54L1.74708 22.66C1.89483 24.0179 2.53842 25.2735 3.55454 26.1863C4.57066 27.0991 5.88785 27.6048 7.25375 27.6067H20.8937C22.2753 27.6092 23.6078 27.0947 24.6292 26.1646C25.6507 25.2344 26.2872 23.9557 26.4137 22.58L27.4537 11.4733C27.5236 10.7107 27.4352 9.94175 27.194 9.21484C26.9527 8.48794 26.5639 7.81871 26.0519 7.24912C25.5399 6.67953 24.9157 6.22186 24.2186 5.90481C23.5214 5.58777 22.7662 5.41818 22.0004 5.40668ZM16.4404 16.9667C16.4404 17.2059 16.3931 17.4428 16.3011 17.6637C16.2092 17.8846 16.0744 18.0851 15.9046 18.2536C15.7348 18.4222 15.5333 18.5555 15.3118 18.6458C15.0902 18.7362 14.853 18.7818 14.6137 18.78H13.0671C12.8278 18.7818 12.5906 18.7362 12.369 18.6458C12.1475 18.5555 11.946 18.4222 11.7762 18.2536C11.6064 18.0851 11.4717 17.8846 11.3797 17.6637C11.2877 17.4428 11.2404 17.2059 11.2404 16.9667V13.7933H16.3737L16.4404 16.9667Z" fill="#A1A5B7"/>
  </g>
  <path d="M27.4537 11.4734C27.5236 10.7107 27.4352 9.94176 27.194 9.21485C26.9527 8.48795 26.5639 7.81872 26.0519 7.24913C25.5399 6.67954 24.9157 6.22187 24.2186 5.90482C23.5214 5.58778 22.7662 5.41819 22.0004 5.40669H19.8537V4.07336C19.8537 3.11504 19.4731 2.19597 18.7954 1.51834C18.1178 0.840711 17.1987 0.460022 16.2404 0.460022H11.7204C10.7735 0.459861 9.86443 0.831385 9.18868 1.49466C8.51294 2.15794 8.12455 3.05997 8.10708 4.00669V5.34002H6.06708C5.28994 5.34127 4.52174 5.50581 3.81226 5.82297C3.10279 6.14014 2.46788 6.60285 1.9487 7.18112C1.42952 7.75939 1.03764 8.4403 0.798483 9.17972C0.559323 9.91915 0.478213 10.7006 0.560411 11.4734L0.760411 13.3934C3.53948 15.4704 6.82008 16.7725 10.2671 17.1667C10.3077 17.8837 10.6197 18.5584 11.1398 19.0537C11.6598 19.549 12.3489 19.8277 13.0671 19.8334H14.5471C15.2461 19.8302 15.9191 19.5682 16.4362 19.0978C16.9533 18.6275 17.2778 17.9823 17.3471 17.2867C21.0022 16.8997 24.469 15.4695 27.3337 13.1667L27.4537 11.4734ZM10.1204 4.00669C10.1204 3.57881 10.2904 3.16845 10.5929 2.86589C10.8955 2.56333 11.3059 2.39336 11.7337 2.39336H16.2537C16.6816 2.39336 17.092 2.56333 17.3945 2.86589C17.6971 3.16845 17.8671 3.57881 17.8671 4.00669V5.34002H10.1071L10.1204 4.00669ZM15.3337 16.9667C15.3338 17.0746 15.3123 17.1815 15.2706 17.281C15.2289 17.3806 15.1678 17.4709 15.0908 17.5466C15.0139 17.6223 14.9226 17.6819 14.8224 17.722C14.7222 17.7621 14.615 17.7818 14.5071 17.78H13.0671C12.9592 17.7818 12.852 17.7621 12.7517 17.722C12.6515 17.6819 12.5603 17.6223 12.4833 17.5466C12.4064 17.4709 12.3453 17.3806 12.3036 17.281C12.2619 17.1815 12.2404 17.0746 12.2404 16.9667V14.7934H15.3337V16.9667Z" fill="#A1A5B7"/>
</svg>