<svg width="41" height="40" viewBox="0 0 41 40" fill="none" xmlns="http://www.w3.org/2000/svg">
<g clip-path="url(#clip0_61_1826)">
<rect x="0.5" width="40" height="40" rx="4" fill="#F8F5FF"/>
<path opacity="0.3" d="M30.0014 27.42L26.8314 24.42C26.2287 25.196 25.5063 25.8711 24.6914 26.42L27.9514 29.52C28.0885 29.6801 28.258 29.8093 28.4487 29.8991C28.6394 29.9888 28.8469 30.0371 29.0577 30.0407C29.2684 30.0443 29.4775 30.0032 29.6712 29.92C29.8649 29.8369 30.0387 29.7135 30.1812 29.5582C30.3237 29.4029 30.4316 29.2191 30.4978 29.0191C30.564 28.819 30.587 28.6071 30.5653 28.3974C30.5436 28.1878 30.4776 27.9851 30.3718 27.8029C30.266 27.6206 30.1227 27.4628 29.9514 27.34L30.0014 27.42Z" fill="#5014D0"/>
<path d="M19.6406 10C17.8606 10 16.1205 10.5278 14.6405 11.5168C13.1605 12.5057 12.0069 13.9113 11.3257 15.5558C10.6445 17.2004 10.4663 19.01 10.8136 20.7558C11.1608 22.5016 12.018 24.1053 13.2767 25.364C14.5353 26.6226 16.139 27.4798 17.8848 27.8271C19.6306 28.1743 21.4402 27.9961 23.0848 27.3149C24.7293 26.6337 26.1349 25.4802 27.1239 24.0001C28.1128 22.5201 28.6406 20.78 28.6406 19C28.6406 16.6131 27.6924 14.3239 26.0046 12.636C24.3168 10.9482 22.0276 10 19.6406 10ZM19.6406 25.36C18.3851 25.36 17.1578 24.9878 16.1138 24.2905C15.0698 23.5932 14.2559 22.6021 13.775 21.4423C13.294 20.2826 13.1677 19.0064 13.4119 17.7748C13.6561 16.5433 14.2599 15.4119 15.147 14.5234C16.034 13.6349 17.1646 13.0294 18.3957 12.7832C19.6268 12.5371 20.9033 12.6614 22.0637 13.1405C23.2242 13.6196 24.2167 14.4319 24.9156 15.4749C25.6146 16.5178 25.9887 17.7445 25.9906 19C25.9933 19.8351 25.8309 20.6625 25.5128 21.4347C25.1948 22.2068 24.7273 22.9086 24.1372 23.4995C23.5472 24.0905 22.8462 24.5591 22.0745 24.8784C21.3029 25.1976 20.4757 25.3613 19.6406 25.36Z" fill="#5014D0"/>
</g>
<defs>
<clipPath id="clip0_61_1826">
<rect width="40" height="40" fill="white" transform="translate(0.5)"/>
</clipPath>
</defs>
</svg>
