<svg width="22" height="22" viewBox="0 0 22 22" fill="none" xmlns="http://www.w3.org/2000/svg">
<path d="M19.7718 17.7925L16.8293 15.0425C18.0798 13.3756 18.6579 11.2995 18.449 9.2262C18.2401 7.15289 17.2595 5.23388 15.7016 3.84993C14.1437 2.46597 12.1225 1.71823 10.0391 1.75507C7.95559 1.7919 5.96208 2.61062 4.45412 4.04878C2.94615 5.48693 2.03392 7.43941 1.89844 9.51881C1.76296 11.5982 2.41413 13.6526 3.72273 15.2742C5.03134 16.8959 6.90175 17.9664 8.96284 18.2732C11.0239 18.5801 13.1251 18.1009 14.8493 16.9308L17.8743 19.8C18.1258 20.0298 18.4506 20.163 18.791 20.1758C18.9792 20.1774 19.1656 20.139 19.3378 20.0632C19.5101 19.9873 19.6643 19.8757 19.7902 19.7358C19.9176 19.6076 20.0182 19.4553 20.0864 19.2879C20.1545 19.1204 20.1887 18.9411 20.187 18.7603C20.1853 18.5796 20.1477 18.4009 20.0764 18.2348C20.0052 18.0687 19.9016 17.9183 19.7718 17.7925ZM10.1743 15.8858C9.01479 15.884 7.8818 15.5386 6.91844 14.8933C5.95507 14.248 5.20455 13.3316 4.76165 12.26C4.31876 11.1884 4.20335 10.0096 4.43001 8.87239C4.65667 7.73523 5.21522 6.69073 6.03514 5.87081C6.85506 5.0509 7.89955 4.49234 9.03672 4.26568C10.1739 4.03902 11.3527 4.15443 12.4243 4.59732C13.496 5.04022 14.4123 5.79075 15.0576 6.75411C15.703 7.71747 16.0483 8.85046 16.0502 10.01C16.0502 10.7816 15.8982 11.5457 15.6029 12.2586C15.3076 12.9715 14.8748 13.6192 14.3292 14.1648C13.7835 14.7105 13.1358 15.1433 12.4229 15.4386C11.71 15.7338 10.946 15.8858 10.1743 15.8858Z" fill="#A1A5B7"/>
</svg>
