<svg width="22" height="22" viewBox="0 0 22 22" fill="none" xmlns="http://www.w3.org/2000/svg">
<path d="M18.9393 13.0167C18.1823 11.878 17.795 10.5335 17.8301 9.16666V9.02916C17.8279 7.58773 17.2902 6.19854 16.3212 5.13135C15.3523 4.06415 14.0213 3.39512 12.5868 3.25416V2.18166C12.5868 1.99933 12.5144 1.82446 12.3854 1.69553C12.2565 1.5666 12.0816 1.49416 11.8993 1.49416C11.717 1.49416 11.5421 1.5666 11.4132 1.69553C11.2842 1.82446 11.2118 1.99933 11.2118 2.18166V3.29083C10.6995 3.3503 10.1971 3.47665 9.71762 3.66666C8.66599 4.10518 7.77104 4.85063 7.14962 5.80565C6.5282 6.76067 6.20921 7.88088 6.23429 9.02C6.24554 10.4709 5.78555 11.8863 4.92346 13.0533L4.30929 13.8967C4.01818 14.2869 3.8415 14.7505 3.79905 15.2356C3.7566 15.7206 3.85004 16.2079 4.06892 16.6428C4.2878 17.0777 4.62347 17.443 5.0383 17.6979C5.45313 17.9528 5.93075 18.0871 6.41762 18.0858H9.42429V18.3883C9.50551 18.981 9.79863 19.5242 10.2494 19.9174C10.7002 20.3107 11.2782 20.5273 11.8764 20.5273C12.4746 20.5273 13.0525 20.3107 13.5033 19.9174C13.9541 19.5242 14.2472 18.981 14.3285 18.3883V18.0858H17.4176C17.8959 18.0792 18.3637 17.944 18.7718 17.6945C19.18 17.445 19.5135 17.0903 19.7375 16.6676C19.9615 16.245 20.0677 15.7698 20.045 15.292C20.0223 14.8141 19.8715 14.3512 19.6085 13.9517L18.9393 13.0167ZM12.981 18.2325C12.9293 18.4824 12.7931 18.707 12.5952 18.8681C12.3973 19.0293 12.1499 19.1174 11.8947 19.1174C11.6395 19.1174 11.3921 19.0293 11.1942 18.8681C10.9963 18.707 10.8601 18.4824 10.8085 18.2325V18.0858H12.981V18.2325ZM17.4176 16.7108H6.41762C6.18594 16.71 5.95901 16.6451 5.76193 16.5233C5.56484 16.4015 5.40529 16.2276 5.30092 16.0207C5.19655 15.8139 5.15143 15.5822 5.17056 15.3513C5.18969 15.1204 5.27231 14.8993 5.40929 14.7125L6.03262 13.8692C7.07772 12.446 7.63116 10.7214 7.60929 8.95583C7.5973 8.10524 7.83955 7.27044 8.30499 6.5584C8.77043 5.84635 9.43787 5.28949 10.2218 4.95916C10.805 4.72678 11.4273 4.60853 12.0551 4.61083C12.6372 4.60599 13.2145 4.71646 13.7537 4.93588C14.2929 5.15529 14.7833 5.4793 15.1966 5.88921C15.6099 6.29912 15.938 6.78682 16.1619 7.32417C16.3857 7.86152 16.501 8.43788 16.501 9.02V9.16666C16.4766 10.7942 16.943 12.3913 17.8393 13.75L18.4626 14.6667C18.6069 14.8869 18.6804 15.146 18.6735 15.4092C18.6796 15.5779 18.6517 15.7461 18.5913 15.9038C18.531 16.0615 18.4395 16.2054 18.3222 16.327C18.205 16.4485 18.0645 16.5451 17.909 16.611C17.7536 16.677 17.5865 16.7109 17.4176 16.7108V16.7108Z" fill="#5E6278"/>
</svg>
