<svg width="40" height="40" viewBox="0 0 40 40" fill="none" xmlns="http://www.w3.org/2000/svg">
<rect opacity="0.1" width="40" height="40" rx="4" fill="#F1416C"/>
<g opacity="0.3">
<path d="M23.869 29.91L16.319 30C15.665 30.0093 15.0322 29.7678 14.5505 29.3253C14.0689 28.8827 13.775 28.2725 13.729 27.62L12.999 17.18C12.9879 17.0273 13.0087 16.8739 13.0602 16.7297C13.1118 16.5854 13.1928 16.4536 13.2983 16.3425C13.4037 16.2314 13.5311 16.1436 13.6725 16.0846C13.8138 16.0256 13.9659 15.9968 14.119 16H25.879C26.0312 15.9969 26.1824 16.0255 26.323 16.0838C26.4636 16.1422 26.5906 16.2291 26.6959 16.3391C26.8012 16.4491 26.8825 16.5797 26.9346 16.7227C26.9868 16.8658 27.0087 17.0181 26.999 17.17L26.409 27.49C26.3734 28.141 26.0907 28.7538 25.6187 29.2035C25.1467 29.6532 24.5209 29.9059 23.869 29.91Z" fill="#F1416C"/>
</g>
<path d="M22.2295 21.6H17.7695C17.5706 21.6 17.3799 21.521 17.2392 21.3803C17.0985 21.2397 17.0195 21.0489 17.0195 20.85C17.0195 20.6511 17.0985 20.4603 17.2392 20.3197C17.3799 20.179 17.5706 20.1 17.7695 20.1H22.2295C22.4284 20.1 22.6192 20.179 22.7599 20.3197C22.9005 20.4603 22.9795 20.6511 22.9795 20.85C22.9795 21.0489 22.9005 21.2397 22.7599 21.3803C22.6192 21.521 22.4284 21.6 22.2295 21.6Z" fill="#F1416C"/>
<path d="M21.4488 25.3H18.5488C18.3499 25.3 18.1591 25.221 18.0185 25.0803C17.8778 24.9397 17.7988 24.7489 17.7988 24.55C17.7988 24.3511 17.8778 24.1603 18.0185 24.0197C18.1591 23.879 18.3499 23.8 18.5488 23.8H21.4488C21.6477 23.8 21.8385 23.879 21.9792 24.0197C22.1198 24.1603 22.1988 24.3511 22.1988 24.55C22.1988 24.7489 22.1198 24.9397 21.9792 25.0803C21.8385 25.221 21.6477 25.3 21.4488 25.3Z" fill="#F1416C"/>
<path d="M28.2494 15.16H28.1394C22.7415 14.4178 17.2674 14.4178 11.8694 15.16C11.676 15.1855 11.4804 15.1346 11.3239 15.0182C11.1674 14.9018 11.0624 14.729 11.0312 14.5365C10.9999 14.3439 11.0449 14.1468 11.1566 13.9869C11.2683 13.827 11.4379 13.7169 11.6294 13.68C17.1787 12.8987 22.8101 12.8987 28.3594 13.68C28.5443 13.7104 28.7111 13.8088 28.8271 13.956C28.943 14.1032 28.9996 14.2884 28.9859 14.4753C28.9721 14.6622 28.8888 14.8371 28.7525 14.9657C28.6162 15.0942 28.4368 15.1671 28.2494 15.17V15.16Z" fill="#F1416C"/>
<path d="M24 13.84H16L16.45 11.52C16.5302 11.0986 16.7528 10.7176 17.0805 10.4409C17.4083 10.1642 17.8211 10.0085 18.25 10H21.78C22.2167 10.0017 22.6391 10.1553 22.9749 10.4344C23.3106 10.7136 23.5387 11.101 23.62 11.53L24 13.84Z" fill="#F1416C"/>
</svg>
