<svg width="40" height="40" viewBox="0 0 40 40" fill="none" xmlns="http://www.w3.org/2000/svg">
<rect width="40" height="40" rx="4" fill="#EEF6FF"/>
<path d="M19.2006 16.54L18.4906 15.82C18.3044 15.6326 18.1998 15.3792 18.1998 15.115C18.1998 14.8508 18.3044 14.5974 18.4906 14.41L21.4206 11.47C21.915 10.9703 22.5092 10.5805 23.1645 10.326C23.8197 10.0714 24.5212 9.95792 25.2233 9.99284C25.9254 10.0278 26.6122 10.2103 27.2389 10.5286C27.8657 10.8469 28.4183 11.2937 28.8606 11.84C29.6442 12.8456 30.0285 14.1052 29.9399 15.3769C29.8513 16.6486 29.296 17.8428 28.3806 18.73L25.5906 21.51C25.4033 21.6963 25.1498 21.8008 24.8856 21.8008C24.6215 21.8008 24.368 21.6963 24.1806 21.51L23.4606 20.8C23.3669 20.707 23.2925 20.5964 23.2417 20.4746C23.191 20.3527 23.1648 20.222 23.1648 20.09C23.1648 19.958 23.191 19.8273 23.2417 19.7054C23.2925 19.5836 23.3669 19.473 23.4606 19.38L26.4006 16.45C26.6106 16.2439 26.7726 15.994 26.8749 15.7181C26.9772 15.4422 27.0174 15.1471 26.9926 14.8539C26.9677 14.5607 26.8785 14.2765 26.7312 14.0218C26.584 13.767 26.3823 13.5479 26.1406 13.38C25.7301 13.112 25.239 12.9954 24.7517 13.0501C24.2645 13.1049 23.8115 13.3276 23.4706 13.68L20.6206 16.54C20.5277 16.6337 20.4171 16.7081 20.2952 16.7589C20.1734 16.8097 20.0426 16.8358 19.9106 16.8358C19.7786 16.8358 19.6479 16.8097 19.5261 16.7589C19.4042 16.7081 19.2936 16.6337 19.2006 16.54ZM19.2006 23.6L16.5306 26.32C16.1898 26.6724 15.7368 26.8952 15.2496 26.9499C14.7623 27.0047 14.2712 26.888 13.8606 26.62C13.619 26.4521 13.4173 26.233 13.27 25.9782C13.1228 25.7235 13.0335 25.4394 13.0087 25.1462C12.9839 24.8529 13.0241 24.5579 13.1264 24.282C13.2287 24.0061 13.3906 23.7561 13.6006 23.55L16.4006 20.76C16.4944 20.667 16.5688 20.5564 16.6195 20.4346C16.6703 20.3127 16.6964 20.182 16.6964 20.05C16.6964 19.918 16.6703 19.7873 16.6195 19.6654C16.5688 19.5436 16.4944 19.433 16.4006 19.34L15.6806 18.62C15.4933 18.4338 15.2398 18.3292 14.9756 18.3292C14.7115 18.3292 14.458 18.4338 14.2706 18.62L11.6206 21.27C10.7052 22.1572 10.1499 23.3514 10.0613 24.6231C9.97274 25.8948 10.3571 27.1544 11.1406 28.16C11.583 28.7063 12.1356 29.1531 12.7623 29.4714C13.3891 29.7897 14.0759 29.9723 14.778 30.0072C15.48 30.0421 16.1816 29.9286 16.8368 29.6741C17.492 29.4195 18.0862 29.0297 18.5806 28.53L21.3806 25.73C21.5669 25.5426 21.6714 25.2892 21.6714 25.025C21.6714 24.7608 21.5669 24.5074 21.3806 24.32L20.6606 23.6C20.5677 23.5063 20.4571 23.4319 20.3352 23.3811C20.2134 23.3303 20.0826 23.3042 19.9506 23.3042C19.8186 23.3042 19.6879 23.3303 19.5661 23.3811C19.4442 23.4319 19.3336 23.5063 19.2406 23.6H19.2006Z" fill="#3E97FF"/>
<path d="M13.3505 16.28H13.1205L11.0005 15.59C10.8125 15.528 10.6561 15.3951 10.5646 15.2195C10.4731 15.044 10.4537 14.8396 10.5105 14.65C10.5389 14.5554 10.586 14.4674 10.649 14.3913C10.712 14.3151 10.7896 14.2524 10.8772 14.2067C10.9648 14.1611 11.0606 14.1334 11.1591 14.1254C11.2576 14.1173 11.3567 14.1291 11.4505 14.16L13.5505 14.82C13.7178 14.8769 13.8597 14.991 13.9511 15.1423C14.0425 15.2936 14.0775 15.4722 14.05 15.6468C14.0225 15.8214 13.9342 15.9806 13.8008 16.0965C13.6673 16.2123 13.4972 16.2773 13.3205 16.28H13.3505Z" fill="#D8D8E5"/>
<path d="M16.4508 13.31C16.2718 13.3075 16.0995 13.242 15.9641 13.1249C15.8287 13.0078 15.739 12.8467 15.7108 12.67L15.5108 11.23C15.4803 11.0324 15.5295 10.8308 15.6477 10.6695C15.7658 10.5082 15.9432 10.4005 16.1408 10.37C16.3384 10.3395 16.54 10.3887 16.7013 10.5069C16.8625 10.625 16.9703 10.8024 17.0008 11L17.2008 12.43C17.2148 12.5273 17.2094 12.6264 17.1847 12.7216C17.16 12.8168 17.1166 12.9061 17.057 12.9843C16.9974 13.0625 16.9228 13.128 16.8376 13.1771C16.7524 13.2261 16.6583 13.2577 16.5608 13.27L16.4508 13.31Z" fill="#D8D8E5"/>
<path d="M24.2508 28.74C24.0797 28.7412 23.9134 28.6831 23.7803 28.5755C23.6472 28.468 23.5555 28.3176 23.5208 28.15L23.0808 26C23.0603 25.9035 23.0591 25.8038 23.0771 25.7068C23.0952 25.6098 23.1322 25.5173 23.1861 25.4346C23.24 25.3519 23.3097 25.2807 23.3911 25.225C23.4726 25.1693 23.5642 25.1302 23.6608 25.11C23.8553 25.0739 24.0562 25.114 24.2219 25.2219C24.3876 25.3299 24.5054 25.4975 24.5508 25.69L25.0008 27.84C25.0396 28.0347 25.0005 28.2368 24.8922 28.4032C24.7838 28.5695 24.6146 28.6868 24.4208 28.73L24.2508 28.74Z" fill="#D8D8E5"/>
<path d="M28.1911 24.5C28.1315 24.5099 28.0707 24.5099 28.0111 24.5L26.6111 24.15C26.5155 24.1277 26.4253 24.0866 26.3457 24.0292C26.2662 23.9717 26.1988 23.8989 26.1476 23.8152C26.0964 23.7314 26.0624 23.6383 26.0476 23.5413C26.0327 23.4442 26.0373 23.3452 26.0611 23.25C26.0845 23.154 26.1267 23.0636 26.1851 22.9839C26.2436 22.9043 26.3172 22.837 26.4018 22.7859C26.4864 22.7348 26.5802 22.7009 26.6779 22.6861C26.7756 22.6714 26.8752 22.6761 26.9711 22.7L28.3711 23.04C28.5508 23.0823 28.7086 23.1894 28.8143 23.3408C28.92 23.4922 28.9661 23.6773 28.9438 23.8606C28.9215 24.0439 28.8324 24.2125 28.6935 24.3342C28.5546 24.4558 28.3757 24.522 28.1911 24.52V24.5Z" fill="#D8D8E5"/>
</svg>
