<svg width="41" height="40" viewBox="0 0 41 40" fill="none" xmlns="http://www.w3.org/2000/svg">
<rect opacity="0.1" x="0.5" width="40" height="40" rx="4" fill="#F7C000"/>
<path opacity="0.3" d="M18.6698 29.53L13.1698 26.35C12.6127 26.0295 12.1501 25.5676 11.8288 25.011C11.5074 24.4543 11.3388 23.8227 11.3398 23.18V16.82C11.3388 16.1773 11.5074 15.5457 11.8288 14.989C12.1501 14.4324 12.6127 13.9705 13.1698 13.65L18.6698 10.47C19.2269 10.1507 19.8578 9.98273 20.4998 9.98273C21.1419 9.98273 21.7728 10.1507 22.3298 10.47L27.8298 13.65C28.387 13.9705 28.8496 14.4324 29.1709 14.989C29.4923 15.5457 29.6609 16.1773 29.6598 16.82V23.18C29.6609 23.8227 29.4923 24.4543 29.1709 25.011C28.8496 25.5676 28.387 26.0295 27.8298 26.35L22.3298 29.53C21.7728 29.8493 21.1419 30.0173 20.4998 30.0173C19.8578 30.0173 19.2269 29.8493 18.6698 29.53Z" fill="#F7C000"/>
<path d="M20.5 21.4C20.7652 21.4 21.0196 21.2946 21.2071 21.1071C21.3946 20.9196 21.5 20.6652 21.5 20.4V15.74C21.5 15.4748 21.3946 15.2204 21.2071 15.0329C21.0196 14.8453 20.7652 14.74 20.5 14.74C20.2348 14.74 19.9804 14.8453 19.7929 15.0329C19.6054 15.2204 19.5 15.4748 19.5 15.74V20.4C19.5 20.6652 19.6054 20.9196 19.7929 21.1071C19.9804 21.2946 20.2348 21.4 20.5 21.4Z" fill="#F7C000"/>
<path d="M20.5 25.26C21.1904 25.26 21.75 24.7004 21.75 24.01C21.75 23.3197 21.1904 22.76 20.5 22.76C19.8096 22.76 19.25 23.3197 19.25 24.01C19.25 24.7004 19.8096 25.26 20.5 25.26Z" fill="black"/>
</svg>
